<?xml version="1.0" encoding="UTF-8"?>
<svg id="Layer_3" data-name="Layer 3" xmlns="http://www.w3.org/2000/svg" viewBox="0 0 1000 80.97">
  <defs>
    <style>
      .cls-1 {
        fill: #dc0000;
      }
    </style>
  </defs>
  <g id="Layer_1" data-name="Layer 1">
    <g>
      <g>
        <polygon class="cls-1" points="308.42 75.31 308.28 13.42 308.32 13.11 273.91 74.8 266.37 74.8 231.74 12.48 231.82 12.79 231.73 75.3 224.1 75.3 224.1 2.64 236.16 2.64 270.26 66.71 304.55 2.66 316.07 2.66 316.06 75.31 308.42 75.31"/>
        <path class="cls-1" d="M607.76,76.57c-15.69,0-31.62-8.5-31.85-27.5-.14-11.35,5.86-20.72,16.04-25.07,4.81-2.05,10.3-3.14,15.89-3.14,14.05,0,24.94,6.46,29.13,17.27,1.27,3.29,1.85,6.97,1.81,11.53h-54.84s.02.69.02.69c.28,8.3,5.36,15.3,13.25,18.27,3.27,1.22,7.19,1.9,11.06,1.9h0c9.72,0,17.35-3.98,20.54-10.66l8.45.03c-4.93,14.78-22.66,16.49-28.05,16.65-.48.01-.96.02-1.44.02h0ZM607.7,26.9c-9.16,0-20.74,4.25-23.2,16.24l-.16.79h46.01s-.09-.74-.09-.74c-.71-6.14-4.27-10.89-10.31-13.75-3.64-1.67-7.87-2.55-12.25-2.55Z"/>
        <path class="cls-1" d="M527.66,76.56c-9.02,0-16.39-2.51-20.22-6.89-3.71-4.25-4.21-10.79-1.18-15.55,2.28-3.59,6.14-5.27,9.26-6.33,5.89-2.01,12.32-2.85,19.14-3.74,4.78-.62,9.73-1.27,14.46-2.36,1.41-.33,3.08-1.45,3.64-2.45.77-1.37.83-2.99.17-4.66-1.08-2.72-3.89-5.14-7.16-6.17-3.15-.99-7.24-1.56-11.22-1.56-5.3,0-17.63,1.11-19.25,11.22l-8.2.03c.51-8.28,8.34-13.91,15.59-15.68,4.24-1.04,8.51-1.56,12.69-1.56,4.77,0,9.39.68,13.74,2.02,7.38,2.28,12,8.22,12.04,15.5l.13,22.45c.03,4.86.44,9.35,1.05,14.5h-7.54l-1.08-12.4-1.04,1.71c-3.34,5.49-8.15,9.16-13.9,10.63-3.33.85-7.28,1.32-11.11,1.32ZM552.87,45.97c-3.71,1.37-9.33,2.14-15.28,2.96-9.08,1.25-18.46,2.53-22.87,6.18-2.21,1.83-2.95,4.79-2.04,8.12,1.21,4.39,7.87,7.46,16.2,7.46,8.66,0,19.34-3.48,23.38-13.26,1.54-3.72,1.6-7.76,1.49-10.87l-.03-.91-.85.31Z"/>
        <path class="cls-1" d="M483.03,75.29l-.06-28.32c-.02-9.76-4.51-16.84-12.01-18.93-2.5-.69-5.04-1.05-7.56-1.05-2.92,0-5.79.47-8.54,1.4-7.9,2.68-12.83,9.55-12.86,17.94l-.1,28.95h-7.53V2.67s7.52,0,7.52,0l.06,29.48,1.17-1.51c4.91-6.31,12.7-9.79,21.94-9.79,3.75,0,7.7.59,11.42,1.71,8.92,3.01,14.05,10.99,14.06,21.89l.03,30.83h-7.52Z"/>
        <path class="cls-1" d="M970.11,76.57c-9.82,0-18.42-3.2-24.22-9-4.88-4.89-7.45-11.43-7.44-18.92.02-10.45,5.17-19.11,14.15-23.76,5-2.59,11.32-4.01,17.8-4.01,11.7,0,26.31,4.97,29.59,18.92h-8.28c-2.84-9.45-12.71-12.83-21.09-12.83-4.34,0-8.69.89-12.24,2.5-7.65,3.47-12.05,10.47-12.07,19.19-.02,8.85,4.65,16.16,12.49,19.54,3.51,1.51,7.58,2.31,11.76,2.31,8.33,0,18.18-3.38,21.18-12.84l8.25.02c-3.2,13.65-17.12,18.72-29.26,18.89h-.63Z"/>
        <path class="cls-1" d="M391.84,76.57c-8.67,0-16.57-2.56-22.26-7.23-6.15-5.04-9.4-12.19-9.4-20.7,0-10.52,5.22-19.21,14.32-23.85,4.98-2.54,11.22-3.94,17.57-3.94,7.26,0,14.15,1.79,19.42,5.05,5.49,3.49,8.95,8.16,10.28,13.88l-8.3.04c-2.89-9.48-12.76-12.87-21.14-12.87-4.41,0-8.81.92-12.4,2.59-7.55,3.5-11.89,10.46-11.9,19.11,0,8.66,4.48,15.88,12.01,19.31,3.58,1.63,7.94,2.54,12.28,2.54h0c8.32,0,18.15-3.38,21.11-12.84h8.32c-3.35,13.73-17.33,18.78-29.46,18.9h-.46Z"/>
        <path class="cls-1" d="M818.34,76.5c-3.53,0-7.13-.56-10.4-1.61-12.46-4.02-14.32-16.07-14.32-22.9v-29.9h7.53l.04,28.24c0,3.45.68,6.91,1.96,10.03,2.67,6.51,8.71,10.09,17,10.09,1.62,0,3.3-.14,4.98-.43,9.26-1.56,16.02-9.37,16.07-18.59l.17-29.34h7.54v53.18s-7.52,0-7.52,0l-.17-10.05-1.15,1.53c-4.66,6.2-12.58,9.75-21.74,9.75Z"/>
        <polygon class="cls-1" points="336.98 2.67 346.03 2.65 346.09 12.44 337.05 12.53 336.98 2.67"/>
        <rect class="cls-1" x="314.85" y="44.86" width="53.19" height="7.67" transform="translate(390.14 -292.75) rotate(90)"/>
        <rect class="cls-1" x="621.28" y="35.14" width="72.63" height="7.67" transform="translate(696.57 -618.62) rotate(90)"/>
        <polygon class="cls-1" points="765.76 77.86 745.53 57.34 754.75 57.34 774.97 77.86 765.76 77.86"/>
        <path class="cls-1" d="M734.47,76.54c-14.49,0-26.55-4.29-34.87-12.41-6.91-6.74-10.88-15.87-10.88-25.04,0-18.28,14.58-37.95,46.59-37.95,29.5,0,45.42,19.55,45.42,37.95,0,15.55-14.35,37.45-46.26,37.45ZM735.31,7.6c-26.4,0-38.22,15.82-38.22,31.49,0,21.29,19.31,30.99,37.26,30.99s38-10.86,38-30.99c0-15.65-12.72-31.49-37.04-31.49Z"/>
        <path class="cls-1" d="M894.63,76.58c-23.31,0-33.79-16.25-33.79-27.79,0-13.99,11.82-28.16,34.42-28.16,21.35,0,32.87,14.51,32.87,28.16,0,11.54-10.39,27.79-33.49,27.79ZM895.26,26.95c-19.67,0-26.68,11.28-26.68,21.85,0,13.13,10.43,21.95,25.96,21.95,17.91,0,25.93-11.02,25.93-21.95,0-12.86-10.37-21.85-25.21-21.85Z"/>
      </g>
      <g>
        <polygon class="cls-1" points="84.26 75.27 84.12 13.42 84.25 13.11 49.77 74.76 42.25 74.76 7.66 12.49 7.71 12.8 7.63 75.26 0 75.26 0 2.65 12.05 2.65 46.13 66.68 80.4 2.68 91.91 2.68 91.9 75.27 84.26 75.27"/>
        <path class="cls-1" d="M166.78,80.97l-6.6-6.7-.41.16c-6.68,2.66-14.22,4.01-22.43,4.01-24.22,0-48.73-13.38-48.73-38.97,0-19.02,15.53-39.48,49.62-39.48,31.43,0,48.38,20.34,48.38,39.48,0,9.61-6.04,23.02-19.54,31.3l-.71.43,9.62,9.76h-9.21ZM138.24,6.76c-28.07,0-40.64,16.43-40.64,32.72,0,22.12,20.54,32.2,39.62,32.2,5.92,0,11.49-.86,16.57-2.55l1-.33-8.21-8.34h9.21l5.36,5.44.44-.26c10.04-5.9,16.03-15.68,16.03-26.16,0-16.26-13.53-32.72-39.38-32.72Z"/>
      </g>
    </g>
  </g>
</svg>