<?xml version="1.0" encoding="UTF-8"?>
<svg id="Layer_2" data-name="Layer 2" xmlns="http://www.w3.org/2000/svg" viewBox="0 0 1000 433.9">
  <defs>
    <style>
      .cls-1 {
        fill: #dc0000;
      }
    </style>
  </defs>
  <g id="Layer_1" data-name="Layer 1">
    <g>
      <polygon class="cls-1" points="451.52 403.33 450.78 71.93 451.46 70.27 266.71 400.62 226.38 400.62 41.05 66.92 41.33 68.58 40.88 403.29 0 403.29 0 14.2 64.58 14.2 247.2 357.31 430.83 14.33 492.49 14.33 492.45 403.33 451.52 403.33"/>
      <path class="cls-1" d="M893.71,433.9l-35.36-35.89-2.18.86c-35.77,14.26-76.22,21.5-120.21,21.5-129.77,0-261.14-71.72-261.14-208.8C474.83,109.67,558.04,0,740.74,0c168.39,0,259.26,109.01,259.26,211.56,0,51.51-32.37,123.34-104.7,167.71l-3.79,2.32,51.53,52.3h-49.34ZM740.76,36.22c-150.43,0-217.77,88.06-217.77,175.34,0,118.55,110.05,172.55,212.3,172.55,31.7,0,61.57-4.6,88.78-13.67l5.37-1.79-44.02-44.67h49.34l28.72,29.15,2.37-1.4c53.8-31.62,85.92-84.02,85.92-140.18,0-87.14-72.49-175.34-211.02-175.34Z"/>
    </g>
  </g>
</svg>