<?xml version="1.0" encoding="UTF-8"?>
<svg id="Layer_2" data-name="Layer 2" xmlns="http://www.w3.org/2000/svg" viewBox="0 0 290.84 138.42">
  <defs>
    <style>
      .cls-1 {
        fill: #f0f0f0;
      }
    </style>
  </defs>
  <g id="Layer_1-2" data-name="Layer 1">
    <g>
      <polygon class="cls-1" points="134 128.67 133.78 22.95 133.98 22.42 79.15 127.8 67.19 127.8 12.18 21.35 12.26 21.88 12.13 128.66 0 128.66 0 4.53 19.17 4.53 73.36 113.99 127.86 4.57 146.16 4.57 146.15 128.67 134 128.67"/>
      <path class="cls-1" d="M260.15,138.42l-10.49-11.45-.65.28c-10.62,4.55-22.62,6.86-35.67,6.86-38.51,0-76.37-22.88-76.37-66.61C136.97,34.98,160.53,0,214.75,0c49.98,0,76.09,34.78,76.09,67.49,0,16.43-8.76,39.35-30.22,53.5l-1.12.74,15.29,16.69h-14.64ZM214.76,11.55c-44.64,0-63.5,28.09-63.5,55.94,0,37.82,31.53,55.04,61.87,55.04,9.41,0,18.27-1.47,26.35-4.36l1.59-.57-13.06-14.25h14.64l8.52,9.3.7-.45c15.97-10.09,24.65-26.8,24.65-44.72,0-27.8-20.66-55.94-61.78-55.94Z"/>
    </g>
  </g>
</svg>